<svg xmlns="http://www.w3.org/2000/svg" width="42px" height="42px"; viewBox="0 0 36 36.02"><defs><style>.cls-1{fill:#231f20;}</style></defs><title>simplified-seal</title><g id="Layer_2" data-name="Layer 2"><g id="Layer_1-2" data-name="Layer 1"><g id="Seal_Simplified" data-name="Seal Simplified"><path class="cls-1" d="M21.77,4.6a2.08,2.08,0,0,0-.19-.86,17.15,17.15,0,0,0-1.51.89,16.93,16.93,0,0,1,1.49.83,1.36,1.36,0,0,0,.2-.86m1.53.6a1.29,1.29,0,0,1-.46,1.06L25,7.77a3.24,3.24,0,0,0,.57-2A4.24,4.24,0,0,0,24.18,3a5.44,5.44,0,0,0-1.71.34A2.54,2.54,0,0,1,23.3,5.2M19.68,2.44c-.09,0-.11-.12,0-.15a3.3,3.3,0,0,1,1.88.33,7.72,7.72,0,0,1,1.78-.27A8.25,8.25,0,0,0,18.57.83c-1.56,0-3.14.75-3.34,2a16,16,0,0,1,3.34,1.1,11.15,11.15,0,0,1,2.14-1,2.31,2.31,0,0,0-1-.44M15.84,8c2,1.11,3.77,1.92,5.32,1.93a4.72,4.72,0,0,0,3.29-1.5c-.73-.49-1.53-1.07-2.29-1.63a3.49,3.49,0,0,1-1.76.43,12.59,12.59,0,0,1-3.07-.39c-.58.48-1,.79-1.5,1.15M19.51,5c-.61.42-1,.83-1.58,1.29a5.2,5.2,0,0,0,1.52.19A2.3,2.3,0,0,0,21,6c-.65-.46-1-.65-1.53-1M6.24,6.69c0-2,2.51-4.06,7-4C13.45,1,15.87,0,18.22,0a10.58,10.58,0,0,1,6.22,2.29c3.35,0,5.55,1.6,5.55,2.88,0,.58-.56,1.14-1.48,1.13-.34,0-.75-.26-.75-.55.5-.16.85-.44.85-.86C28.61,3.65,27.39,3,25.17,3A5.77,5.77,0,0,1,27,7.12a3,3,0,0,1-.41,1.6,8.66,8.66,0,0,0,1.86.84,3.65,3.65,0,0,1,3.2-2c1.34,0,2.06.48,2.07,1.28s-1.27,1.63-2.86,1.63c-.55,0-.86,0-1.38,0-.12.61-.21,1-.31,1.66,2.5,0,4.47,0,5.71,1.26A4.52,4.52,0,0,1,36,16.69a7.92,7.92,0,0,1-2.71,5.69c-1.51,1.28-2.36,1.95-6.36,1.95a13.07,13.07,0,0,1-1.55-.1,2.49,2.49,0,0,0,.52-1.18c.19-.82.43-2.43.78-5.24.22-1.89.4-3.31.59-4.59-1.22,0-1.51.1-1.91.34a.92.92,0,0,0-.48.82,1.44,1.44,0,0,0,.29.73,7.52,7.52,0,0,1-1.47,1.13,2.25,2.25,0,0,1-.44-1,2.91,2.91,0,0,1,1.36-2,4.72,4.72,0,0,1,2.85-1.09,12.09,12.09,0,0,1,.62-1.94,9.85,9.85,0,0,1-2-.85,5.23,5.23,0,0,1-3.73,1.4,14.09,14.09,0,0,1-7.22-2.22A7.84,7.84,0,0,1,10.52,10,4.28,4.28,0,0,1,6.75,8.33a9.63,9.63,0,0,0-1.17,3.56c2.21,0,3.42.2,4.05.78A2,2,0,0,1,10.26,14c0,1.65-1,2.77-2.58,4,1,1.62,3.12,5.42,4.54,7.78a23.3,23.3,0,0,1,3-.17c2.53,0,5.89.68,7.9,2.18a13.41,13.41,0,0,1,4-.85c2.26,0,3.51.66,3.51,1.66,0,1.65-2.39,3.12-5.64,3.57C24.18,34.72,20.48,36,17.84,36c-3.81,0-6.19-1.47-6.7-3.34a6.1,6.1,0,0,1-.77,0c-2.8,0-4.81-1.29-4.81-3s1.62-3,4.62-3.63c-1.94-3.18-3.45-5.85-4.33-7.26l-1.3,0C4.3,20.69,4.13,22.1,4,23.11A6.91,6.91,0,0,0,5.54,23a3.14,3.14,0,0,1-1.11,1.26A4.19,4.19,0,0,1,3,24.45c-.66,0-1.29,0-1.6,0a5,5,0,0,0,.68-1.31c.14-.46.44-2.5.84-5.06s.61-4,.77-5.12A2.71,2.71,0,0,0,2,13.21a1.28,1.28,0,0,0-.38,1,1.63,1.63,0,0,0,.11.55c-.37.24-1.08.61-1.51.82A1.49,1.49,0,0,1,0,14.78a1.92,1.92,0,0,1,.63-1.34A5.82,5.82,0,0,1,3.82,12,7.47,7.47,0,0,1,6.35,7.45a3,3,0,0,1-.11-.76m4.11-.19A4.59,4.59,0,0,0,8.23,7a2.47,2.47,0,0,0,2.32,2.35c.88,0,1.59-.3,3.24-1.6a6.57,6.57,0,0,0-3.43-1.26m.05-.59a8.78,8.78,0,0,1,4.07,1.28c.43-.3.66-.54,1.15-.93-1.46-.71-2.35-1.68-2.4-3A6.91,6.91,0,0,0,9.87,4,2.94,2.94,0,0,0,8.24,6.31a6.61,6.61,0,0,1,2.16-.4m4.76-2.49a2.48,2.48,0,0,0,1.19,2.22c.52-.42,1.06-.89,1.68-1.35a18.64,18.64,0,0,0-2.87-.87M30.64,10c.7,0,1.7-.48,1.7-1.21a.78.78,0,0,0-.83-.65c-.88,0-1.61.51-1.93,1.76a6.06,6.06,0,0,0,1.06.1m-2.21,7.92c-.29,2.74-.41,3.92-.48,4.93,1.77.26,3.55.14,4.53-.76a6.64,6.64,0,0,0,1.6-4.36,4.45,4.45,0,0,0-1-3.23c-1-1-1.69-1.18-4.13-1.22-.19,1.37-.4,3.33-.55,4.64M13.07,32.39c.27,1.42,2.27,2.95,5,3s4.48-1.41,5-3c-.46,0-.8,0-1.29,0s-.8,0-1.23,0a3,3,0,0,1-2.6,1.11,2.24,2.24,0,0,1-1.73-.83c0-.07,0-.24.1-.18a1.88,1.88,0,0,0,1.06.29,2,2,0,0,0,1.41-.54A13.13,13.13,0,0,1,16,31.45a28.4,28.4,0,0,1-3,.95m8.67-.69h1.37a4.35,4.35,0,0,0-.93-2.92c-.64.24-1.07.43-1.71.72A2.15,2.15,0,0,1,21,30.93a2.31,2.31,0,0,1-.11.73,7.39,7.39,0,0,0,.81,0M14,28.39a7.88,7.88,0,0,1,2.73-.49A5,5,0,0,1,20,29l1.71-.72c-1.34-1.35-3.49-2.16-6.53-2.17a18.74,18.74,0,0,0-2.63.2c.57.89.95,1.45,1.42,2.09m-1,3.3A13.54,13.54,0,0,0,15.23,31a8.37,8.37,0,0,1-1.79-1.11A2.67,2.67,0,0,0,13,31.69m-2,0a3,3,0,0,1,1.51-2.48,12.3,12.3,0,0,1-2-2.45c-1.77.54-3,1.5-3,2.8,0,.82.44,2.42,2.75,2.43.18,0,.45,0,.68,0,0-.09,0-.23,0-.3m8.15-.23a1.61,1.61,0,0,0,.1-.57,2.58,2.58,0,0,0-.13-.82c-.7.33-1.33.62-2,.87a7.09,7.09,0,0,0,2,.53m-2.76-.88c.76-.36,1.5-.67,2.43-1.11a2.46,2.46,0,0,0-2.19-1A3.87,3.87,0,0,0,14.5,29a6.71,6.71,0,0,0,1.91,1.61m12.05-1.54c0-.82-.78-1.36-1.87-1.37a9.84,9.84,0,0,0-2.92.5A4,4,0,0,1,25.12,31c0,.06,0,.25,0,.41,1.66-.27,3.35-1.1,3.35-2.37M4.74,17.64a4.7,4.7,0,0,0,1,.06,3.31,3.31,0,0,0,1.34-.27,2.64,2.64,0,0,0,1.34-2.37c0-1.16-.85-2-3-2-.21,1.45-.5,3.24-.69,4.63m11.64,5.2a1.67,1.67,0,0,1-1,1.3,11,11,0,0,1-3.21.19A6,6,0,0,0,12.67,23c.14-.64.32-1.55.69-4.13s.57-4.15.73-5.29a8.82,8.82,0,0,0-1.72.08,4.7,4.7,0,0,1,1.17-1.18c.26-.13.74-.29,2.83-.29A38.4,38.4,0,0,0,15.25,18c-.38,2.74-.51,3.54-.67,5a5.29,5.29,0,0,0,1.8-.17m7.47-10.15a6.85,6.85,0,0,1-1.34,1.47c0-.39-.71-.91-1.53-.92s-1.33.31-1.34,1.11c0,1.28.57,1.77,1.6,2.91,1.21,1.29,2,2.21,2,3.25,0,2.16-2.45,4-4.49,4a3.55,3.55,0,0,1-1.43-.32,3.7,3.7,0,0,1,1-2.14,2.15,2.15,0,0,0,2.08,1.11,1.37,1.37,0,0,0,1.39-1.3c0-.74-.81-1.82-2-3.06s-1.78-2-1.78-3.15c0-2.23,2.34-3.62,4.26-3.61a1.8,1.8,0,0,1,1.51.71"/></g></g></g></svg>