<svg xmlns="http://www.w3.org/2000/svg" id="gear" viewBox="0 0 51.07 50.33"><title>gear</title><g id="Layer_2" data-name="Layer 2"><g id="Layer_1-2" data-name="Layer 1"><path d="M48.83,36.17l-2.4,4.27-6.89-1.2-3,2.47v7L32,50.33,27.48,45H23.59L19.1,50.33l-4.57-1.65-.08-7-2.92-2.55-6.89,1.2-2.4-4.19,4.42-5.39L6,27,0,23.52l.82-4.87,6.89-1.2,1.95-3.37L7.26,7.56,11,4.42l6.07,3.44,3.67-1.27L23.14,0H28l2.4,6.59,3.67,1.35,6-3.52,3.75,3.15-2.32,6.59,1.87,3.37,6.89,1.2.82,4.79-6,3.52-.67,3.82ZM25.54,34.3a8.76,8.76,0,1,0-8.76-8.76A8.73,8.73,0,0,0,25.54,34.3Z"/></g></g></svg>