<svg xmlns="http://www.w3.org/2000/svg" id="sliders" viewBox="0 0 52.72 46.13">
	<title>sliders</title>
	<g id="Layer_2" data-name="Layer 2">
		<g id="Layer_1-2" data-name="Layer 1">
			<polygon id="bar-bottom" data-name="Bar Bottom" points="42.84 37.52 52.72 37.52 52.72 40.22 42.84 40.22 34.15 40.22 0 40.22 0 37.52 34.15 37.52 42.84 37.52"/>
			<path id="slider-bottom" data-name="Slider Bottom" d="M34.15,37.52v-4a1.82,1.82,0,0,1,1.8-1.8H41a1.82,1.82,0,0,1,1.8,1.8V44.33a1.82,1.82,0,0,1-1.8,1.8H35.95a1.82,1.82,0,0,1-1.8-1.8V37.52Z"/>
			<polygon id="bar-middle" data-name="Bar Middle" points="10.48 24.41 0 24.41 0 21.72 10.48 21.72 19.17 21.72 52.72 21.72 52.72 24.41 19.17 24.41 10.48 24.41"/>
			<path id="slider-middle" data-name="Slider Middle" d="M10.48,21.72v-4a1.77,1.77,0,0,1,1.8-1.8h5.09a1.82,1.82,0,0,1,1.8,1.8V28.46a1.82,1.82,0,0,1-1.8,1.8H12.28a1.77,1.77,0,0,1-1.8-1.8V21.72Z"/>
			<polygon id="bar-top" data-name="Bar Top" points="25.31 8.61 0 8.61 0 5.92 25.31 5.92 34 5.92 52.72 5.92 52.72 8.61 34 8.61 25.31 8.61"/>
			<path id="slider-top" data-name="Slider Top" d="M34,8.61v4a1.77,1.77,0,0,1-1.8,1.8H27.11a1.77,1.77,0,0,1-1.8-1.8V1.8A1.82,1.82,0,0,1,27.11,0H32.2A1.82,1.82,0,0,1,34,1.8V8.61Z"/>
		</g>
	</g>
</svg>