<svg xmlns="http://www.w3.org/2000/svg" id="tools" viewBox="0 0 58.05 47.08">
	<title>tools</title>
	<g id="Layer_2" data-name="Layer 2">
		<g id="Layer_1-2" data-name="Layer 1"><g id="hammer">
			<path d="M27,21.57,34.38,14l5.54,5.54-7.34,7.26-5.69,5.84L15.65,46.21a2.78,2.78,0,0,1-4,0L8.76,43.29a2.87,2.87,0,0,1-.07-4.12l13-12.06Z"/>
			<path d="M53.4,15.66a2.33,2.33,0,0,1,3.22.07l.82.82a2.15,2.15,0,0,1-.08,3.07l-4.49,4.49a2.17,2.17,0,0,1-3.15.07l-.82-.82a2.26,2.26,0,0,1,0-3.22,3.11,3.11,0,0,0-1.2-2.4c-1.87-1.87-4-1.95-5.09-1l-1.5,1.57-5.47-5.62,1.57-1.5C38.94,9.44,37,7.57,37,7.57,32.2,2.78,25.46,2.92,25.46,2.92l-.08-1.8c13.71-3.59,18.87,2.4,20.74,4.19l4,4c1,1-.08,3.89,1.35,5.39A3,3,0,0,0,53.4,15.66Z"/>
		</g>
			<path id="wrench" d="M32.58,26.81,45.83,38.65a4.77,4.77,0,0,1-.08,6.81,4.93,4.93,0,0,1-6.89,0l-12-12.81-5.24-5.54L15.43,21.2c-2.1-1.95-3.29-2.55-4.94-2a6.92,6.92,0,0,1-6.14-.82C-.22,15.43,0,9.74,0,9.74l.37-.6,4.72,3.07S8,14,10.26,10.56c2.55-4-.3-5.69-.3-5.69l-4.72-3,.45-.6a9.44,9.44,0,0,1,9.44.15A8.41,8.41,0,0,1,19,10.56c-.45,2.17,0,2.92,1.72,4.79L27,21.57Zm9.81,17.75A2.55,2.55,0,1,0,39.84,42,2.52,2.52,0,0,0,42.39,44.56Z"/>
		</g>
	</g>
</svg>